<?xml version="1.0" encoding="iso-8859-1"?>
<!-- Generator: Adobe Illustrator 19.0.0, SVG Export Plug-In . SVG Version: 6.00 Build 0)  -->
<svg version="1.1" id="Layer_1" xmlns="http://www.w3.org/2000/svg" xmlns:xlink="http://www.w3.org/1999/xlink" x="0px" y="0px"
	 viewBox="0 0 410 410" style="enable-background:new 0 0 410 410;" xml:space="preserve">
<g>
	<polygon points="322.388,122.89 337,73 287.11,87.612 299.583,110.417 	"/>
	<polygon points="110.417,110.417 122.89,87.612 73,73 87.612,122.89 	"/>
	<polygon points="87.612,287.11 73,337 122.89,322.388 110.417,299.583 	"/>
	<polygon points="299.583,299.583 287.11,322.388 337,337 322.388,287.11 	"/>
	<path d="M277.479,132.521L205,0l-72.479,132.521L0,205l132.521,72.479L205,410l72.479-132.521L410,205L277.479,132.521z M205,230
		c-13.785,0-25-11.215-25-25c0-13.785,11.215-25,25-25s25,11.215,25,25C230,218.785,218.785,230,205,230z"/>
</g>
<g>
</g>
<g>
</g>
<g>
</g>
<g>
</g>
<g>
</g>
<g>
</g>
<g>
</g>
<g>
</g>
<g>
</g>
<g>
</g>
<g>
</g>
<g>
</g>
<g>
</g>
<g>
</g>
<g>
</g>
</svg>
